<?xml version="1.0" encoding="UTF-8"?>
<svg xmlns="http://www.w3.org/2000/svg" id="Layer_1" data-name="Layer 1" viewBox="0 0 819 216">
  <defs>
    <style>.cls-1{fill:#231f20;}</style>
  </defs>
  <title>BlockVue, Logo (Transparent Face)</title>
  <path class="cls-1" d="M108,0A108,108,0,1,0,216,108,108,108,0,0,0,108,0Zm24.38,135.43H83.62v-6.1h48.76v6.1ZM87.53,108a5.12,5.12,0,1,1,5.12,5.12A5.12,5.12,0,0,1,87.53,108Zm30.7,0a5.12,5.12,0,1,1,5.12,5.12A5.12,5.12,0,0,1,118.23,108Zm14.15-21.33H83.62v-6.1h48.76v6.1Z"></path>
  <path class="cls-1" d="M295.18,100.5l1.27-1.27c2.39-2.39,3.82-4,7.11-4h7.93c1.87,0,3.52,1,5.31,2.53l2.47,2.09c2.84,2.46,3.89,4.48,3.89,8.28v14.4c0,3.81-1,5.82-3.89,8.28L316.8,133c-1.72,1.42-3.81,2.54-5.61,2.54h-7.41c-2.92,0-4.94-1.79-7-3.66l-1.64-1.57v0.45c0,2.31-.75,4.78-3.59,4.78-3.07,0-3.59-2.54-3.59-5V85.43c0-2.46.52-4.93,3.59-4.93s3.59,2.46,3.59,4.93V100.5Zm0,17.76c0,2.31.3,3.21,2.17,4.78l4.12,3.51c0.9,0.75,2,1.79,2.77,1.79h5.46a3.23,3.23,0,0,0,2.25-.67l3.14-2.61c0.82-.67.9-2.39,0.9-3.81V108.56a3.83,3.83,0,0,0-1-3L311.72,103a2.52,2.52,0,0,0-1.72-.6h-5a4.85,4.85,0,0,0-3,1.27l-4.64,4a5,5,0,0,0-2.17,4.25v6.27Z"></path>
  <path class="cls-1" d="M380.16,128.34h5.39c2.39,0,4.94.52,4.94,3.58s-2.84,3.58-4.94,3.58H367.29c-2.09,0-4.94-.45-4.94-3.58s2.54-3.58,4.94-3.58H373V87.66h-5.69c-2.09,0-4.94-.45-4.94-3.58s2.54-3.58,4.94-3.58h7.56c4.12,0,5.31.75,5.31,5v42.83Z"></path>
  <path class="cls-1" d="M429.67,108.64c0-4.78,1-6.42,4.56-9.33s5.16-4,10.18-4h5.68c5,0,6.66,1.12,10.18,4s4.56,4.55,4.56,9.33v13.51c0,4.7-1.2,6.49-4.94,9.63s-5.24,3.73-9.8,3.73h-5.68c-4.56,0-6.06-.6-9.8-3.73s-4.94-4.93-4.94-9.63V108.64Zm7.18,13.51c0,1.49.52,2.46,2.62,4.25a6.54,6.54,0,0,0,4.94,1.94h5.68a6.54,6.54,0,0,0,4.94-1.94c2.1-1.79,2.62-2.76,2.62-4.25V108.64c0-1.49-.52-2.46-2.62-4.25a6.55,6.55,0,0,0-4.94-1.94h-5.68a6.55,6.55,0,0,0-4.94,1.94c-2.1,1.79-2.62,2.76-2.62,4.25v13.51Z"></path>
  <path class="cls-1" d="M500.5,111.92c0-4.4.82-6.57,4.26-9.41l5.31-4.4c3.37-2.76,5.09-2.83,9.28-2.83h11.37c2.39,0,4.94.52,4.94,3.58s-2.84,3.58-4.94,3.58H518.08a6.78,6.78,0,0,0-4.11,1.79l-4.34,3.66c-1.12.9-1.94,1.64-1.94,3.06v8.88c0,1.42.82,2.16,1.94,3.06l4.34,3.66a6.77,6.77,0,0,0,4.11,1.79h12.64c2.1,0,4.94.45,4.94,3.58s-2.54,3.58-4.94,3.58H519.35c-4.19,0-5.91-.07-9.28-2.83l-5.31-4.4c-3.44-2.83-4.26-5-4.26-9.4v-6.94Z"></path>
  <path class="cls-1" d="M595,98.19c1.27-1.12,3.07-2.91,4.79-2.91a3.6,3.6,0,0,1,3.59,3.66c0,1.72-1.12,2.54-2.39,3.58L587,114,604,128c1.35,1.12,2.54,1.94,2.54,3.81a3.6,3.6,0,0,1-3.59,3.66c-1.42,0-2.32-.9-3.37-1.72l-18-15-3,2.69v9.1c0,2.46-.52,4.93-3.59,4.93s-3.59-2.46-3.59-4.93V85.43c0-2.46.52-4.93,3.59-4.93s3.59,2.46,3.59,4.93V112Z"></path>
  <path class="cls-1" d="M670.15,104.23v-3.66c0-2.54.45-5.3,3.67-5.3,2.54,0,3.52,2,3.52,4.33v5.08a5.91,5.91,0,0,1-.82,2.91L665.81,131c-0.67,1.49-1.94,4.48-3.74,4.48h-4.64c-1.79,0-3.07-3-3.74-4.48L643,107.59a5.93,5.93,0,0,1-.82-2.91V99.6c0-2.31,1-4.33,3.52-4.33,3.22,0,3.67,2.76,3.67,5.3v3.66L659.75,128Z"></path>
  <path class="cls-1" d="M748.17,130.2c0,1.64.3,5.3-3.52,5.3-3.07,0-3.59-2.54-3.59-5v-1.19l-5.83,3.81c-2.32,1.49-4.26,2.39-6.21,2.39H723.7a10,10,0,0,1-6.66-2.61c-3.22-2.76-3.14-5.82-3.29-9.7L713,100.65c-0.08-2.61.3-5.37,3.59-5.37,3.07,0,3.44,2.61,3.52,4.92l0.75,22c0.08,1.64.15,3.58,0.75,4.63s2.47,1.49,4.19,1.49h2.39a4,4,0,0,0,2.24-.67L741,121V100.2c0-2.46.52-4.92,3.59-4.92s3.59,2.46,3.59,4.92v30Z"></path>
  <path class="cls-1" d="M797,135.5c-3,0-4.19,0-6.43-1.94l-3.07-2.68c-2.84-2.54-3.66-4.18-3.66-8.06V109c0-3.81.52-6,3.52-8.58l2.54-2.16c3.37-2.91,5-3,7.93-3h6.58c3.52,0,5.16.37,7.93,2.61l2.92,2.31c3.29,2.61,3.74,5.38,3.74,9.33v5.74c0,4.1-.67,5.3-4.94,5.3H791V123a3.49,3.49,0,0,0,1,2.09l1.79,1.94c1,1,2.39,1.34,4.79,1.34h15.41c2.39,0,4.94.52,4.94,3.58s-2.84,3.58-4.94,3.58H797Zm-6-22.09h20.8v-4.33c0-1.34.08-2.46-.9-3.36l-2.77-2.39a5.11,5.11,0,0,0-3.44-.89h-6.06a5.8,5.8,0,0,0-3.66.82l-2.47,1.79c-0.9.67-1.5,1.2-1.5,3.28v5.08Z"></path>
  <path class="cls-1" d="M108,108"></path>
  <path class="cls-1" d="M108,108"></path>
  <path class="cls-1" d="M108,108"></path>
</svg>
