<?xml version="1.0" encoding="UTF-8"?>
<svg xmlns="http://www.w3.org/2000/svg" viewBox="0 0 1761.61 318.1">
  <defs>
    <style>.cls-1{fill:#101212;}.cls-2{fill:#1f2222;}.cls-3{fill:#101313;}.cls-4{fill:#111313;}.cls-5{fill:#0d1010;}.cls-6{fill:#0e1111;}.cls-7{fill:#121414;}.cls-8{fill:#ed362c;}.cls-9{fill:#ed352b;}.cls-10{fill:#121515;}.cls-11{fill:#ed352c;}.cls-12{fill:#ed342a;}.cls-13{fill:#161919;}.cls-14{fill:#151818;}.cls-15{fill:#141717;}.cls-16{fill:#0f1212;}.cls-17{fill:#1b1d1d;}.cls-18{fill:#141616;}.cls-19{fill:#1e2121;}.cls-20{fill:#171a1a;}.cls-21{fill:#1a1c1c;}.cls-22{fill:#858686;}</style>
  </defs>
  <g id="Layer_2" data-name="Layer 2">
    <g id="Layer_1-2" data-name="Layer 1">
      <path class="cls-1" d="M1636.77,20.29c-1.46,5.06-4.06,10.09-4.18,15.18-.61,27-.46,53.94-.93,80.91-.08,4.33-2,8.62-3,12.93-4.24-2.36-9.13-4-12.6-7.2-24.94-23-49.59-46.22-70.83-66.1,0,16.68-.58,39.3.57,61.84.19,3.75,7.94,7.12,12.5,10.92h-70.65c-4.47-12.8-7.93-25-13.31-36.32-1.13-2.38-9.3-2-14.2-1.87-5.91.18-15.06-.53-17,2.68-5,8.13-7.2,18.13-9.36,27.65-.37,1.64,5,4.57,8.45,7.54h-40.73c17.38-2.34,18.75-17.82,23.91-29.76,10.27-23.73,19.81-47.77,29.74-71.64,1.63-3.9,3.73-7.61,6.88-13.95,3.64,5.89,6.46,9.4,8.17,13.39,10.43,24.45,20.58,49,30.89,73.52a169.8,169.8,0,0,0,7.18,15.92c3.26,6,8.16,12.23,15.31,8.9,3.68-1.71,6.57-9,6.72-13.78.85-28,.66-56.12,1.14-84.17.06-3.61,2-7.17,3-10.76,3.26,2,7.11,3.35,9.69,6,21.49,21.84,42.73,43.92,64.08,65.9,2.65,2.73,5.52,5.24,8.89,8.43,0-24,.22-46.38-.29-68.77-.06-2.66-4.14-5.22-6.35-7.83,0-1.1,0-2.2,0-3.31l26.25,0C1636.71,17.8,1636.74,19,1636.77,20.29ZM1458.89,50.06l-12.68,32.18h25.44Z"></path>
      <path class="cls-2" d="M1761,177.13H308.1l-4.3-4.8c2.5-.36,5-.89,7.48-1.06,2.91-.2,5.84-.11,8.76-.11q714.21,0,1428.41.09c4.39,0,8.77,1.35,13.16,2.07Z"></path>
      <path class="cls-3" d="M1280.25,63.28,1243,132.6c-12.94-25.28-24.57-48-36.2-70.75l-2.2.41c-2.31,18.25-5.21,36.46-6.44,54.78-.24,3.59,5.94,7.62,9.14,11.41h-34.53c13.15-3.45,11.53-15,13.09-24.73C1190,77.83,1194,51.91,1198.14,26c.54-3.38,1.68-6.67,2.54-10l3.47-1,42.26,79.64c15-27.46,29.2-53.63,43.45-79.79l3.47.69c1.11,3.55,2.7,7,3.27,10.67q5.67,36.72,11,73.48c1.82,12.67.42,27.33,19.4,29h-36.48c-2.63-21.86-5.23-43.5-7.83-65.14Z"></path>
      <path class="cls-1" d="M584.46,121.83c.25-30.57.65-61.15.54-91.72,0-3.27-2.93-9.26-4.56-9.28-5-.06-11.09.85-14.63,3.88C562,28,560.35,34,558.14,38.92c-12,26.9-23.69,53.92-35.94,80.7-1.75,3.82-6,6.53-9,9.76-3-3.33-7.18-6.17-8.85-10.07-10.62-24.71-20.68-49.66-30.93-74.53C468.54,33,466.26,19,449.71,16.11h48.37l.3,1.55-9.84,4.94,29.52,78.8c10.52-26.58,20.24-50.63,29.23-75,.62-1.67-4.22-5.35-6.52-8.1.05-.82.1-1.64.14-2.46l10.94-.17,13.18,0,21.89,0h19.76l10.94.07c.06.87.11,1.74.17,2.61-7.43,1.53-10.53,6.08-10.47,13.63.22,26.13-.05,52.27.37,78.39.08,5.54,2.27,11,3.95,18.67h-31Z"></path>
      <path class="cls-4" d="M1114.6,131.8c-35.91-.08-61-24.23-61-58.8,0-35,25.79-59.22,63.2-59.19,38.3,0,62.1,21.88,61.91,56.84C1178.5,106.83,1152.23,131.89,1114.6,131.8Zm41-53.13c.25-21.56-6.11-37.24-18.22-46.77-17.85-14-44.37-10.46-54.77,7.41-11.28,19.36-8.05,52.42,7.18,68.88,11.34,12.26,25.61,17,41.75,12.18,15.2-4.52,21-17,23.15-31.56C1155.31,84.86,1155.43,80.83,1155.62,78.67Z"></path>
      <path class="cls-5" d="M628.77,128.28c15.21-3.19,12.26-15,12.38-25,.3-25.14.2-50.29.71-75.42.08-4.23,2.35-8.41,3.61-12.61C649,17.48,653.14,19.09,656,22,677.22,43.53,698.2,65.35,719.29,87c2.68,2.76,5.61,5.28,8.3,7.8,0-22.85.58-45.26-.57-67.59-.19-3.74-7.89-7.09-12.46-10.91h41c-13.69,3.1-11.55,13.8-11.69,23.32-.39,25.86-.64,51.73-1.27,77.59-.1,4-1.88,8-2.88,11.92-4-2.13-8.73-3.47-11.8-6.51-22.26-22.08-44.2-44.49-66.21-66.82-1.76-1.78-3.35-3.72-6.87-7.66,0,9.12,0,15.71,0,22.3.1,10.2.27,20.4.43,30.6.18,11.38-2.1,24.17,14.86,27.2Z"></path>
      <path class="cls-6" d="M365.53,127.93c14.54-2.19,15.67-12.68,15.55-24.38-.21-20.38.07-40.77,0-61.16-.06-10.88,3.24-23.86-16.31-24l2.14-3.16c8,0,16,0,24,0,9.12,0,18.25-.4,27.36-.07,13.8.49,26.21,4,31.87,18.46,5.19,13.28,1.12,28-10.4,38.65-1.59,1.48-3.26,2.85-6.21,5.42,17.33,17.35,26,42.88,54.79,49.08-18.65,6.64-37,2.37-47.59-10.63-6.19-7.62-12.42-15.36-17.33-23.8-5.14-8.82-11.86-10.65-21.88-8.13,0,5.68-.11,11.39,0,17.1.27,11.07-3.38,24.38,16.56,24.65l-2.32,4.18-50.16-3.05ZM401.35,26c0,11.25-.39,22.83.21,34.36.22,4.36,2.64,12.25,4.22,12.28,6.75.17,14.78-.18,20.06-3.72,7.73-5.18,8.45-24.41,3.23-33.64C424.08,26.45,415.21,23.23,401.35,26Z"></path>
      <path class="cls-4" d="M1045.27,5.4c-.58,11.45-1.1,21.71-1.66,32.74-2.37-1.19-3.49-1.42-3.56-1.83-2.58-16.62-14-22.19-29.08-24.22-31.61-4.27-57.23,13.46-60.53,42.38-3.84,33.63,17.31,61.37,49.22,64.11,18.11,1.56,35.6,1.06,42.89-22.09,6.32,18.41-.46,31.78-16,34-20.81,3-41.5,2.34-61.36-5.56C937.71,114,922.06,88.32,924.8,59.1c2.68-28.7,22.38-50.73,51.11-56.57C998.84-2.13,1021.57.13,1045.27,5.4Z"></path>
      <path class="cls-7" d="M796.62,63.72l46-2.42c-.61,6.67-1.38,15.12-2.4,26.36-11.11-22.41-28.8-9.54-44-15,0,13.36-.6,24.88.39,36.26.28,3.25,4.92,8.32,8,8.71,10,1.24,20.42,1.84,30.31.29,4.37-.69,7.84-7.13,11.45-10.68,6,13.79,1.05,22.2-14.23,22.18-20.44,0-40.88,0-61.31-.07a27.65,27.65,0,0,1-10-2c14.74-2.88,12.8-13.6,12.85-23.17q.16-30.58,0-61.19c-.06-11,4.15-24.56-14-27h85c-.69,7.08-1.36,14-2.32,23.79C830.71,16,811.86,28.35,796.62,23.59Z"></path>
      <path class="cls-7" d="M365.44,317.55c-38.26.22-63.53-26.57-56.87-60.08a45.67,45.67,0,0,1,3.34-10.33c9-19.44,25.22-28.65,45.86-30.35,22.93-1.89,45.17.37,60,20.92,22.69,31.55-.84,75.34-42.46,79.79A91.86,91.86,0,0,1,365.44,317.55Zm41.06-46.78c-2-8-2.95-16.51-6.12-24-7.77-18.44-26.86-27.39-46.92-23.08-16,3.44-25.3,16.63-25.36,37.24a70.65,70.65,0,0,0,2.66,20.43c6.19,20.58,25.34,32.44,46.47,29.59C394.63,308.56,404.89,293.94,406.5,270.77Z"></path>
      <path class="cls-8" d="M136.84,150.41c6.54-4.63,13.86-7.86,18.36-13.38,11.31-13.85,5-32.5-13.37-42.75C136.19,91.13,130.53,88,125,84.7c-10.58-6.3-15.23-16.28-13-27.57S122.33,37.39,134,35.74c6.4-.9,13.68-1.64,19.49.48,17.64,6.44,34.77,14.3,52.1,21.61l-.82,3.8c-3.3,0-6.59-.06-9.89,0-24,.48-37.53,18.33-31,41.39,2.06,7.31,5.89,14.12,8.23,21.37,3.55,10.94.17,21.63-8,27.46C155.59,158,145.8,157.32,136.84,150.41Z"></path>
      <path class="cls-9" d="M212.71,232.14c-.07-1-.21-2.1-.2-3.15.26-35.94-18.95-48.32-52.61-34.35a64.23,64.23,0,0,1-20.89,5c-9.25.47-15.72-5.1-19.16-13.61s-2.08-16.11,4.91-23.78c1.94,4.69,3.11,8.76,5.19,12.29,8.67,14.73,30.75,18.17,42.24,5.5,6.92-7.63,11.39-17.55,16.57-26.66,6.29-11.07,15.14-16.21,26.72-14.86s21,9.45,22.94,21.61c1.13,7,1.8,15-.52,21.43-6.4,17.58-14.49,34.56-21.91,51.78Z"></path>
      <path class="cls-8" d="M41.73,239.44c42.61,3.57,52.35-27.3,36.56-55.84-3-5.4-5.22-13.3-3.5-18.68,2.18-6.83,7.69-13.78,13.68-17.9,7.21-5,14.84-2.28,22.6,4.46-5.21,2.82-11.09,4.81-15.42,8.57-12.54,10.93-12.35,30.83.77,41.22,7.33,5.79,16.18,9.72,24.47,14.25,11.65,6.35,16.42,15.19,14.65,27.79a25.21,25.21,0,0,1-21.45,21.84c-7.38,1.13-15.82,1.63-22.59-.85C74.19,258,57.56,249.82,40.65,242.4Z"></path>
      <path class="cls-10" d="M1125,213.58c30.91,2.2,51.21,15.53,56.88,39,5,20.85-3.06,43-21.21,54.34-22.86,14.3-47.07,14.74-70.74,2.44-16.92-8.8-25-24.33-24.87-43.13s8.74-34.2,25.84-42.47C1101.41,218.62,1113.56,216.85,1125,213.58Zm39.16,55.49c-2.2-8-3.45-16.35-6.79-23.81a39.78,39.78,0,0,0-44-22.64c-17.64,3.47-27.23,15.29-28,36.17a66.7,66.7,0,0,0,2.74,21.43c6.33,21.07,26.58,33.76,47,30.27C1152.64,307.46,1162.9,292.38,1164.14,269.07Z"></path>
      <path class="cls-11" d="M3.05,156.52a7.65,7.65,0,0,1,1.8,1c26.18,25.75,48.9,20.89,62.21-13.16,2.09-5.35,4.56-10.86,8.15-15.25,6-7.29,14.17-10.23,23.54-7.27s15.15,9.37,16.17,21c-3-1.22-5.09-2-7.12-2.91-10.25-4.69-19.91-3.37-28.82,3.16-8.74,6.39-12.44,15.4-10.53,25.84,1.56,8.52,4.56,16.78,7.14,25.1,3.81,12.29,1.3,22-7.85,29.45s-21.11,8.69-31.46,1.58c-5.84-4-12.08-9.21-15-15.37C13.31,192.79,7,175.07,0,157.65Z"></path>
      <path class="cls-7" d="M1367.35,79.22c-.14,8-.44,16-.38,24,.12,17.56.19,17.56,17.06,25.48H1333.4c13.11-4,11.28-15,11.38-24.68.22-21.13.2-42.26.16-63.4,0-17.15-.12-17.15-15.37-23.31,2.38-.68,3.55-1.31,4.72-1.31,19,0,38-.6,56.93.3,22.22,1.06,33.76,13.09,33.08,32.43-.45,12.77-7,22.17-18.6,25.69-10.5,3.21-22,3.06-33.1,4.38,3.05-1.41,6-3.52,9.19-4.12,10.73-2,19.33-6.81,23-17.48,3.42-9.92.28-19-7.2-25.68-8.45-7.62-18.95-7.63-30.24-5.66Z"></path>
      <path class="cls-9" d="M129.71,270.2c2.29-2.26,4.62-4.48,6.85-6.78,16.55-17.11,13.28-39.58-7.75-51-7.64-4.17-16.26-6.64-23.67-11.14-9.24-5.62-13.4-14.59-10.4-25.33,2.77-9.91,9.72-15.52,21.73-16.68-1.46,3.21-2.3,5-3.13,6.88-9.36,20.72,6,42.41,28.55,39.56,8.57-1.08,16.89-4.31,25.22-6.89,12.52-3.88,22-1.58,29.63,7.55,7.43,8.94,8.34,21.07,1.78,31.53a39.52,39.52,0,0,1-9.22,10.65C171.73,261.71,150.92,266.84,129.71,270.2Z"></path>
      <path class="cls-11" d="M34.69,68.76c0,4.62-.25,9.25,0,13.85C36,102.8,52.86,115.87,72.59,111.26c8.42-2,16.32-6.11,24.58-8.88,10.87-3.65,21.6-.59,27.59,7.46,6.22,8.35,5.78,18-2,29-1.09-2.7-2-4.78-2.77-6.9-7.34-20-33.18-25.29-46.82-9-5.74,6.86-9.68,15.31-13.88,23.32-6.71,12.82-16,18.19-29.06,16a25.73,25.73,0,0,1-21.79-24c-.6-8.45.17-17.69,3.11-25.54C17.28,97.5,24.94,83,31.78,68.16Z"></path>
      <path class="cls-12" d="M133.74,141.5c.81-9.23,3.4-17.92,1.86-25.81-2.89-14.81-16.6-23-31.42-20.12-8.89,1.75-17.48,5-26.23,7.51-10.51,3-19.58.43-26.69-7.78-7.34-8.48-9.62-18.62-4-28.33,4-7,9.7-14.6,16.59-18.07,16.73-8.45,34.61-14.64,52-21.74l2.1,3.23c-2.28,2.28-4.59,4.53-6.82,6.86-16.91,17.66-13.49,40,8,51.82,8.71,4.8,18,8.81,26.11,14.42S154.91,118,152,126.94,142.23,141,133.74,141.5Z"></path>
      <path class="cls-12" d="M132.18,159.4c8.55,1.68,15.64,4.7,22.39,4.08,17.14-1.57,27.52-16.45,24.14-33.58-1.61-8.15-4.65-16-7.09-24-3.31-10.8-1.12-20.19,7.52-27.64s18.45-8.78,28.5-4c5.11,2.42,11.24,5.8,13.55,10.43,8.22,16.44,15.09,33.56,22.15,50.56.82,2-.41,4.8-1,9.46-2.79-3.48-4.15-5.69-6-7.39-17.56-16.19-39.54-12.59-51,8.56-3.78,7-6,14.86-10,21.75-8.75,15.23-28.31,17.14-38.18,3.82C134.75,168,133.82,163.39,132.18,159.4Z"></path>
      <path class="cls-13" d="M991.36,276.55c4.58,12.74-7.41,29.74,11.22,38.33H968.29c1.77-4.6,5.46-9.92,5.64-15.36.73-21.84.19-43.71.52-65.56.12-8.22-1.32-14.54-11.07-16,17.13,0,34.28-.55,51.37.2,10.64.47,20.08,4.75,23.83,16.08,3.82,11.53-1.16,20.53-9.06,28.46-2.3,2.3-4.75,4.46-8.22,7.71,16,15.53,26.52,36.62,49.33,43.51-14.47,5.12-28.8,2.19-39.25-9.05a153.74,153.74,0,0,1-15.9-19.45C1010,277.1,1003.17,273.49,991.36,276.55Zm1.19-52.15v42.72c9.41,2,18.49,4.33,25.52-4.43,5.75-7.15,6.19-20.93.89-29C1012.73,224.26,1003.6,222.6,992.55,224.4Z"></path>
      <path class="cls-14" d="M1365.26,315.21c1.93-4.85,5.66-10.1,5.85-15.47.76-21.45.49-42.93.44-64.4,0-12.69-.17-12.69-13.14-17.85,17.69,0,33.54-.49,49.34.16,12,.5,23.58,3.27,28.08,16.63,4.4,13.08-2.45,22.33-11.39,30.63-1.58,1.47-3.18,2.92-6,5.47,16.12,15.56,26.46,36.71,49.32,43.53-15.22,5.26-29,2.15-40-10-5.39-5.91-10.83-11.93-15.13-18.62-5.46-8.48-12.37-11.72-22.1-9.3-5.08,22.45-1.73,34.4,12.15,39.18Zm24.32-48.12c9.94,2.15,19.32,4.45,26.24-5.12,5.4-7.47,5.46-21.18,0-28.84-6.47-9.09-15.48-10.73-26.25-8.54Z"></path>
      <path class="cls-14" d="M1636.77,20.29c0-1.25-.06-2.49-.08-3.74H1681c-.45,3.68-2.37,7.91-1,10.47,7.43,14.39,15.63,28.38,24.68,44.48,8.28-15.32,15.85-28.43,22.35-42,1.51-3.17-.6-8-1.13-12.86h33.56c-18.79,6.52-23,25.23-33.47,38.76-14.09,18.27-14,38.84-13.14,60.25.46,11.15,9.41,8.63,15,13H1678c13.76-3,11.57-14.11,11.09-23.72-.51-10,.11-21.09-3.95-29.73-7.38-15.7-17.78-30-27.08-44.77C1653.17,22.57,1646.16,18.78,1636.77,20.29Z"></path>
      <path class="cls-15" d="M746.59,218.68c-.66,10.34-1.17,18.16-1.77,27.59-10.19-20.6-25.73-27.23-49.68-22.5-16.66,3.28-27,16.6-28.42,36.59A46.11,46.11,0,0,0,699,308.13c19.67,6.29,35.62,1.18,46.1-14.78,3,15.8-1.2,23.4-16.14,23.63-15.84.25-32.29-.18-47.45-4.2-23.73-6.29-36.27-25.82-35.36-49,.85-21.64,16-41.08,39.53-44.51C705.09,216.43,725.27,218.68,746.59,218.68Z"></path>
      <path class="cls-16" d="M365.53,127.93l.08-.8c-3,.78-6,2.18-8.95,2.22-16.13.23-32.26.11-48.7.11.49-2.6.57-3.88.76-3.89,16.62-1.51,15.59-13.25,15.41-25.28-.39-25.86-.49-51.73.06-77.58.22-10.52-1.24-18.13-14-17.92-.76,0-1.54-1.3-3.83-3.36h54.09c-.22.93-.33,2.15-.54,2.17C343.52,4.92,345.45,16.89,345.51,28c.15,26.59.45,53.19,0,79.77-.18,10.62,2.49,16.92,14.47,16.32C361.77,124,363.68,126.58,365.53,127.93Z"></path>
      <path class="cls-14" d="M1222,224.14c0,27.16-.4,53.67.44,80.14.12,3.9,6.11,7.61,9.21,11.2h-35.1c2-4.88,5.74-10.05,5.92-15.35.75-21.84.19-43.73.58-65.59.15-8.62-1.39-15.13-11.53-17.08,15.75,0,31.52-.55,47.25.14,19.47.84,30.41,10.92,29,25.45-1.58,16.72-17.48,31.39-33.28,26.05,4.1-3.32,10.16-6.13,12.63-10.83,2.63-5,3.27-12,2.29-17.71C1247.32,228.35,1237.68,222.93,1222,224.14Z"></path>
      <path class="cls-17" d="M1307.79,265.86c0,12.29.06,22.41,0,32.53-.06,6.89,3.74,10.31,10.11,10.1,8.78-.28,17.53-1.45,27.1-2.32,2.69,6.19,1.21,10.2-8.59,10-18.91-.41-37.83-.12-54.06-.12,2.16-5.88,5.75-11.33,5.93-16.9.72-21.81.07-43.66.56-65.49.19-8.65-2.08-14.14-11.52-16h66.55c-.42,5.57-.86,11.39-1.56,20.65-8-19.29-22.13-11.25-34-14v35.89l33.21-1.8c-.36,5.36-.77,11.61-1.18,17.87C1333,260.61,1319.48,269.32,1307.79,265.86Z"></path>
      <path class="cls-18" d="M1650.47,260.32l33.31-2c-.38,3.38-.81,7.16-1.2,10.65L1650,266c0,12.12-.24,23,.19,33.78a10.18,10.18,0,0,0,4,7.06c10.09,6.75,28.79,1,34-10.09,4,15.42,1.12,19.24-14.44,19.2-17.13,0-34.26,0-49.61,0,2.35-4.89,6.44-9.56,6.6-14.37.77-23.63,1-47.32.16-70.94-.17-4.68-5.87-9.17-8.68-13.26-1.68.31-.75,0,.17,0,21.08,0,42.16,0,63.85,0-.55,6-1.08,11.59-1.83,19.73-7.59-18.2-21.94-10-33.88-13.16Z"></path>
      <path class="cls-14" d="M790.91,223.74v37.19l33.14-2.14c-.36,5.14-.78,11.19-1.45,20.93-7.28-18.2-20.28-10.33-31.92-13.15,0,12.48-.26,24,.24,35.44.09,2.17,3.09,5.83,5,6,10.6,1.08,21.77,4.32,31.49-5.63v12.86c-1.58.44-2.94,1.15-4.31,1.15-19.67.07-39.35.05-57.68.05,2-5.49,5.39-10.49,5.53-15.57.64-22.91.55-45.84.24-68.75-.06-4.26-2.35-8.49-3.9-13.7h59l-1.23,17.2C817.41,218.33,802.44,229,790.91,223.74Z"></path>
      <path class="cls-7" d="M909.84,224.45c0,26.4-.44,52.91.46,79.37.14,4.16,6.35,8.11,9,11.26H885.14c1.84-4.77,5.51-10.08,5.69-15.5.72-22.19.14-44.42.54-66.63.14-8.3-2.52-13.29-14-13.72,22,0,41.38-1.57,60.36.49,15.26,1.66,21.66,16.14,16.6,30.85-4.58,13.33-18.73,22-29.42,18.09,12.89-9.14,16.93-19.39,12.27-31.19C933.05,227,924,222.55,909.84,224.45Z"></path>
      <path class="cls-19" d="M1526.48,315.06H1489c2.3-3.72,7-7.83,7.12-12.06.7-25.42.34-50.87.34-78.15l-39.91,2.78c1.17-3.94,2.17-7.31,3.19-10.73h93.52v20.22c-9.26-17.56-24.13-9.45-37-12.18,0,27.33-.46,53.44.49,79.5C1516.88,308.37,1523.59,312.07,1526.48,315.06Z"></path>
      <path class="cls-20" d="M437.8,315.91c1.62-5.6,4.22-10.6,4.34-15.67.52-21.46.07-42.94.48-64.41.16-8.7-.61-15.9-11.42-17.57h68.16c-.54,5.51-1.1,11.24-1.88,19.1-8.75-19.37-23.64-8.41-35.55-12.53v34.22h33.68c-.34,4.88-.76,11-1.42,20.52-7.25-18.28-20.46-10.48-30.83-12.67-6.43,21.94-1.93,47.92,8.32,49H437.8Z"></path>
      <path class="cls-20" d="M579.41,235.13c-9.32-17-24.31-6-36-10.6V260.7l33.46-1.61c-.4,4.81-.9,10.73-1.59,19-7.78-16.13-20.46-9.47-31.11-10.85-5.34,26-1.86,46.34,5,48.68H518.71c1.69-5.7,4.49-11,4.64-16.43.57-21.13.1-42.28.43-63.41.13-8.62-.17-16.23-11.41-17.73h68.25C580.24,223.54,579.83,229.33,579.41,235.13Z"></path>
      <path class="cls-14" d="M1703.08,290.68c7.06,16.74,12.52,22,25,19.82,5.91-1,13.53-5.41,15.79-10.36,1.95-4.28-1.41-12.25-4.59-17.21-3-4.63-9-7.2-13.28-11.1-6.43-5.81-13.76-11.17-18.5-18.19-8.77-13-4-29.42,11-33.9,11-3.31,23.5-2.11,35.34-2.3,1.38,0,3.83,3.81,4,6,.43,4.64-.3,9.38-.73,17.28-2.27-4.93-3.17-7.26-4.38-9.43-5.5-9.86-20.89-13.08-29.54-5.92-6.44,5.34-7,12-1.43,18.12,3.86,4.25,8.78,7.56,13.32,11.15,4.85,3.84,10.12,7.19,14.68,11.33,8.88,8.07,13.93,17.83,10.43,30.17s-12.79,18.15-24.7,20.23a74,74,0,0,1-16.28,1C1699.9,316.44,1696.08,309.94,1703.08,290.68Z"></path>
      <path class="cls-21" d="M629.5,315.6h-30c1.68-5.11,4.94-10.69,5.1-16.35q1-33.27,0-66.56c-.14-4.79-4.11-9.47-6.2-13.95h31.82c-1.93,4.47-6,9.68-6.16,15-.67,22.9-.57,45.84.17,68.73C624.36,307.62,628.25,312.66,629.5,315.6Z"></path>
      <path class="cls-10" d="M1567,217.5h31.92c-1.83,5.6-5.43,11.77-5.63,18.05-.7,21.46-.46,43,0,64.44.11,5,2.54,9.88,3.92,14.91h-29.45c1.89-3.87,6-8.54,6.21-13.35q1.14-35.46.2-71C1574.08,226.14,1569.51,221.82,1567,217.5Z"></path>
      <path class="cls-4" d="M606.68,15.73h0Z"></path>
      <path class="cls-4" d="M623,130l-12.41-2.66.88-3.66,12.4,2.64Z"></path>
      <path class="cls-4" d="M565,15.74l-13.18,0Z"></path>
      <path class="cls-4" d="M584.46,121.83l-3.87,7.27-6.91-.55c0-.75-.09-1.5-.13-2.26Z"></path>
      <path class="cls-14" d="M1610.44,16.52c0,1.11,0,2.21,0,3.31l-7-.55,0-2.76Z"></path>
      <path class="cls-22" d="M758.35,218.06h7.44c0,.83.08,1.66.13,2.49l-7.44.58Z"></path>
      <path class="cls-4" d="M617.79,18.41c-.06-.87-.11-1.74-.17-2.61l1.82.65Z"></path>
      <path class="cls-4" d="M540.91,15.88c0,.82-.09,1.64-.14,2.46l-1.48-1.84Z"></path>
    </g>
  </g>
</svg>
